<?xml version="1.0" encoding="UTF-8" standalone="no"?>
<svg width="25px" height="29px" viewBox="0 0 25 29" version="1.1" xmlns="http://www.w3.org/2000/svg" xmlns:xlink="http://www.w3.org/1999/xlink">
    <!-- Generator: Sketch 3.8.2 (29753) - http://www.bohemiancoding.com/sketch -->
    <title>favourite_full</title>
    <desc>Created with Sketch.</desc>
    <defs>
        <path d="M12.5,6.75 C12.5,3.57436269 9.92563731,1 6.75,1 C3.57436269,1 0.999996872,3.57436269 1,6.75 C1.00000129,8.05867632 1.43977919,8.86367281 2.48210524,10.6033241 L12.5,26.4210526 L22.5178934,10.6033261 C23.6878119,8.74599474 24,7.85544674 24,6.75 C24,3.57436269 21.4256373,1 18.25,1 C15.0743627,1 12.5,3.57436269 12.5,6.75 C12.5,6.85151314 12.5026306,6.95241187 12.5078273,7.05263174 C12.4973694,6.95241176 12.5,6.85151308 12.5,6.75 Z" id="path-1"></path>
        <filter x="-50%" y="-50%" width="200%" height="200%" filterUnits="objectBoundingBox" id="filter-2">
            <feMorphology radius="0.5" operator="dilate" in="SourceAlpha" result="shadowSpreadOuter1"></feMorphology>
            <feOffset dx="0" dy="1" in="shadowSpreadOuter1" result="shadowOffsetOuter1"></feOffset>
            <feGaussianBlur stdDeviation="1" in="shadowOffsetOuter1" result="shadowBlurOuter1"></feGaussianBlur>
            <feComposite in="shadowBlurOuter1" in2="SourceAlpha" operator="out" result="shadowBlurOuter1"></feComposite>
            <feColorMatrix values="0 0 0 0 0   0 0 0 0 0   0 0 0 0 0  0 0 0 0.5 0" type="matrix" in="shadowBlurOuter1"></feColorMatrix>
        </filter>
    </defs>
    <g id="Symbols" stroke="none" stroke-width="1" fill="none" fill-rule="evenodd">
        <g id="favourite_full">
            <g id="Combined-Shape">
                <use fill="black" fill-opacity="1" filter="url(#filter-2)" xlink:href="#path-1"></use>
                <use stroke="#1E1E1E" stroke-width="1" fill="#F58539" fill-rule="evenodd" xlink:href="#path-1"></use>
            </g>
        </g>
    </g>
</svg>