<?xml version="1.0" encoding="UTF-8" standalone="no"?>
<svg width="1528px" height="1529px" viewBox="0 0 1528 1529" version="1.1" xmlns="http://www.w3.org/2000/svg" xmlns:xlink="http://www.w3.org/1999/xlink" style="background: #FFFFFF;">
    <!-- Generator: Sketch 3.7.2 (28276) - http://www.bohemiancoding.com/sketch -->
    <title>kds_background</title>
    <desc>Created with Sketch.</desc>
    <defs></defs>
    <g id="Symbols" stroke="none" stroke-width="1" fill="none" fill-rule="evenodd" opacity="0.327133862">
        <g id="kds_background">
            <g id="kds" transform="translate(-89.000000, -12.000000)">
                <g id="svg2">
                    <g id="layer1" transform="translate(0.000000, 0.466273)">
                        <g id="g5547-Clipped" transform="translate(0.000000, 0.000000)">
                            <g id="g5547" transform="translate(0.476617, 0.045175)">
                                <polygon id="rect4027" fill-opacity="0.47872338" fill="#00B09A" points="83.8458727 994.40481 1638.09645 994.40481 1638.09645 1546.41223 83.8458727 1546.41223"></polygon>
                                <polygon id="rect4027-2" fill-opacity="0.19148937" fill="#00B09A" points="90.4849104 -1.08890674e-12 1644.7355 -1.08890674e-12 1644.7355 998.870557 90.4849104 998.870557"></polygon>
                                <g id="g4098" transform="translate(383.000000, 352.000000)">
                                    <polygon id="rect4049" fill="#FFFFFF" points="0.325723025 -1.70530257e-13 953.309191 -1.70530257e-13 953.309191 469.324366 0.325723025 469.324366"></polygon>
                                    <polygon id="rect4053" fill-opacity="0.40425535" fill="#00B09A" points="0.325723025 447.188727 953.309191 447.188727 953.309191 469.324287 0.325723025 469.324287"></polygon>
                                    <g id="g4063" transform="translate(477.276301, 196.877065) scale(1, -1) translate(-477.276301, -196.877065) translate(307.776301, 34.877065)" fill="#00B09A">
                                        <g id="g4065" transform="translate(-0.000000, 0.000000)">
                                            <path d="M176.937193,61.4387911 C114.637348,61.4387911 64.1357966,109.822326 64.1357966,169.506632 C64.1357966,229.189292 114.637348,277.572279 176.937193,277.572279 C239.23532,277.572279 289.738589,229.189292 289.738589,169.506632 C289.738589,109.822326 239.23532,61.4387911 176.937193,61.4387911 L176.937193,61.4387911 Z M290.883554,278.669175 C227.951116,338.957871 125.921552,338.957871 62.9908314,278.669175 C10.1571005,228.053457 1.74204734,151.059035 37.6228686,91.9719886 L37.5781004,92.0147676 L0.845304887,13.1199184 C-0.798344141,9.59142329 0.0022362601,5.4630577 2.85347075,2.73152885 C5.70469737,4.72957827e-13 10.0162126,-0.7648272 13.6993365,0.811960822 L96.0517008,35.9961784 L96.0093371,36.0390122 C157.685176,1.67105527 238.049709,9.72853529 290.883554,60.3440889 C353.814275,120.630591 353.814275,218.378834 290.883554,278.669175 L290.883554,278.669175 Z" id="path4067"></path>
                                            <path d="M176.937193,207.330349 C155.129614,207.330349 137.455931,190.394823 137.455931,169.506632 C137.455931,148.620635 155.129614,131.683463 176.937193,131.683463 C198.738475,131.683463 216.416165,148.620635 216.416165,169.506632 C216.416165,190.394823 198.738475,207.330349 176.937193,207.330349" id="path4069"></path>
                                        </g>
                                    </g>
                                </g>
                                <g id="g4107" transform="translate(1279.615269, 521.413895)" fill="#009682">
                                    <path d="M179.509896,69.6649859 C179.509896,108.029862 148.38535,139.130739 109.991276,139.130739 C71.5972024,139.130739 40.472656,108.029862 40.472656,69.6649859 C40.472656,31.3001099 71.5972024,0.199233038 109.991276,0.199233038 C148.38535,0.199233038 179.509896,31.3001099 179.509896,69.6649859 L179.509896,69.6649859 Z" id="path2985-6-16"></path>
                                    <path d="M0.499442314,219.016367 C-0.361576394,181.160571 53.8018109,137.944299 108.259314,138.380011 C163.72491,138.823808 219.495627,183.577291 217.745161,217.279716 C214.471721,280.303689 162.13026,472.566015 162.13026,472.566015 L57.852316,472.566015 C57.852316,472.566015 1.36049202,256.872132 0.499442314,219.016367 L0.499442314,219.016367 Z" id="path3757-14-9"></path>
                                </g>
                                <g id="g4013" transform="translate(0.245331, 944.308786)" fill="#00B09A">
                                    <path d="M397.139899,71.5300257 C397.139899,109.894902 366.015352,140.995779 327.621279,140.995779 C289.227205,140.995779 258.102659,109.894902 258.102659,71.5300257 C258.102659,33.1651498 289.227205,2.06427293 327.621279,2.06427293 C366.015352,2.06427293 397.139899,33.1651498 397.139899,71.5300257 L397.139899,71.5300257 Z" id="path2985-8"></path>
                                    <path d="M218.129451,220.881345 C217.268423,183.025704 271.431817,139.809246 325.889323,140.245112 C381.354919,140.688724 437.125642,185.442331 435.375145,219.144694 C432.101705,282.16876 379.760238,474.431241 379.760238,474.431241 L275.482312,474.431241 C275.482312,474.431241 218.990482,258.737296 218.129451,220.881345 L218.129451,220.881345 Z" id="path3757-5"></path>
                                    <path d="M614.493821,70.6664401 C614.493821,109.031316 583.369274,140.132193 544.975201,140.132193 C506.581127,140.132193 475.456581,109.031316 475.456581,70.6664401 C475.456581,32.3015641 506.581127,1.20068725 544.975201,1.20068725 C583.369274,1.20068725 614.493821,32.3015641 614.493821,70.6664401 L614.493821,70.6664401 Z" id="path2985-5-7"></path>
                                    <path d="M435.483373,220.017976 C434.622354,182.162025 488.785742,138.945877 543.243245,139.381434 C598.708841,139.825355 654.479558,184.578653 652.729092,218.281325 C649.455652,281.305082 597.11419,473.567562 597.11419,473.567562 L492.836247,473.567562 C492.836247,473.567562 436.344423,257.873617 435.483373,220.017976 L435.483373,220.017976 Z" id="path3757-1-6"></path>
                                    <path d="M831.518935,72.8569558 C831.518935,111.221832 800.394389,142.322709 762.000315,142.322709 C723.606241,142.322709 692.481695,111.221832 692.481695,72.8569558 C692.481695,34.4920799 723.606241,3.39120298 762.000315,3.39120298 C800.394389,3.39120298 831.518935,34.4920799 831.518935,72.8569558 L831.518935,72.8569558 Z" id="path2985-6-1"></path>
                                    <path d="M652.508481,222.208461 C651.647463,184.35251 705.81085,141.136362 760.268353,141.571919 C815.733949,142.01584 871.504666,186.769138 869.7542,220.47181 C866.48076,283.495566 814.139299,475.758047 814.139299,475.758047 L709.861355,475.758047 C709.861355,475.758047 653.369531,260.064102 652.508481,222.208461 L652.508481,222.208461 Z" id="path3757-14-8"></path>
                                    <path d="M1046.35189,72.8569558 C1046.35189,111.221832 1015.22735,142.322709 976.833272,142.322709 C938.439198,142.322709 907.314652,111.221832 907.314652,72.8569558 C907.314652,34.4920799 938.439198,3.39120298 976.833272,3.39120298 C1015.22735,3.39120298 1046.35189,34.4920799 1046.35189,72.8569558 L1046.35189,72.8569558 Z" id="path2985-2-9"></path>
                                    <path d="M867.341438,222.208461 C866.480419,184.35251 920.643807,141.136362 975.10131,141.571919 C1030.56691,142.01584 1086.33762,186.769138 1084.58716,220.47181 C1081.31372,283.495566 1028.97222,475.758357 1028.97222,475.758357 L924.694312,475.758357 C924.694312,475.758357 868.202457,260.064102 867.341438,222.208461 L867.341438,222.208461 Z" id="path3757-3-2"></path>
                                    <path d="M1261.18482,70.6664401 C1261.18482,109.031316 1230.06027,140.132193 1191.6662,140.132193 C1153.27212,140.132193 1122.14758,109.031316 1122.14758,70.6664401 C1122.14758,32.3015641 1153.27212,1.20068725 1191.6662,1.20068725 C1230.06027,1.20068725 1261.18482,32.3015641 1261.18482,70.6664401 L1261.18482,70.6664401 Z" id="path2985-22-7"></path>
                                    <path d="M1082.17439,220.017976 C1081.31334,182.162025 1135.47673,138.945877 1189.93424,139.381434 C1245.39983,139.825355 1301.17055,184.578653 1299.42008,218.281325 C1296.14664,281.305082 1243.80518,473.567562 1243.80518,473.567562 L1139.52724,473.567562 C1139.52724,473.567562 1083.03541,257.873617 1082.17439,220.017976 L1082.17439,220.017976 Z" id="path3757-16-9"></path>
                                    <path d="M1478.04549,69.5713836 C1478.04549,107.936259 1446.92094,139.037136 1408.52687,139.037136 C1370.1328,139.037136 1339.00825,107.936259 1339.00825,69.5713836 C1339.00825,31.2065076 1370.1328,0.105630745 1408.52687,0.105630745 C1446.92094,0.105630745 1478.04549,31.2065076 1478.04549,69.5713836 L1478.04549,69.5713836 Z" id="path2985-22-7-3"></path>
                                    <path d="M1299.03507,218.92292 C1298.17402,181.066969 1352.33741,137.850821 1406.79491,138.286377 C1462.2605,138.730298 1518.03122,183.483596 1516.28076,217.186269 C1513.00732,280.210025 1460.66585,472.472475 1460.66585,472.472475 L1356.38791,472.472475 C1356.38791,472.472475 1299.89609,256.778561 1299.03507,218.92292 L1299.03507,218.92292 Z" id="path3757-16-9-1"></path>
                                    <path d="M1695.38033,72.9453574 C1695.38033,111.310233 1664.25578,142.41111 1625.86171,142.41111 C1587.46763,142.41111 1556.34309,111.310233 1556.34309,72.9453574 C1556.34309,34.5804814 1587.46763,3.47960455 1625.86171,3.47960455 C1664.25578,3.47960455 1695.38033,34.5804814 1695.38033,72.9453574 L1695.38033,72.9453574 Z" id="path2985-22-7-3-copy"></path>
                                    <path d="M1516.33105,222.433693 C1515.47,184.577743 1569.63338,141.361594 1624.09089,141.797151 C1679.55648,142.241072 1735.3272,186.99437 1733.57673,220.697043 C1730.30329,283.720799 1677.96183,475.983248 1677.96183,475.983248 L1573.68389,475.983248 C1573.68389,475.983248 1517.19206,260.289334 1516.33105,222.433693 L1516.33105,222.433693 Z" id="path3757-16-9-1-copy"></path>
                                    <path d="M179.882754,72.9453574 C179.882754,111.310233 148.758207,142.41111 110.364134,142.41111 C71.9700601,142.41111 40.8455137,111.310233 40.8455137,72.9453574 C40.8455137,34.5804814 71.9700601,3.47960455 110.364134,3.47960455 C148.758207,3.47960455 179.882754,34.5804814 179.882754,72.9453574 L179.882754,72.9453574 Z" id="path2985-22-7-3-copy-2"></path>
                                    <path d="M0.833473751,222.433693 C-0.0275759585,184.577743 54.1358114,141.361594 108.593315,141.797151 C164.05891,142.241072 219.829628,186.99437 218.079161,220.697043 C214.805722,283.720799 162.46426,475.983248 162.46426,475.983248 L58.1863164,475.983248 C58.1863164,475.983248 1.69449246,260.289334 0.833473751,222.433693 L0.833473751,222.433693 Z" id="path3757-16-9-1-copy-2"></path>
                                </g>
                                <g id="g3949" transform="translate(40.892219, 1066.498795)" fill="#009682">
                                    <path d="M458.416729,72.8292793 C458.416729,112.097676 427.292182,143.931001 388.898109,143.931001 C350.504035,143.931001 319.379489,112.097676 319.379489,72.8292793 C319.379489,33.5608827 350.504035,1.72755765 388.898109,1.72755765 C427.292182,1.72755765 458.416729,33.5608827 458.416729,72.8292793 L458.416729,72.8292793 Z" id="path2985"></path>
                                    <path d="M279.406281,225.697994 C278.545253,186.950667 332.708647,142.71662 387.166153,143.162593 C442.631749,143.616841 499.069877,188.585309 498.977119,223.127744 C498.803818,287.635977 499.940879,485.219173 499.940879,485.219173 L336.759142,485.219173 C336.759142,485.219173 280.267312,264.445289 279.406281,225.697994 L279.406281,225.697994 Z" id="path3757"></path>
                                    <path d="M675.770651,71.9453555 C675.770651,111.213752 644.646104,143.047077 606.25203,143.047077 C567.857957,143.047077 536.73341,111.213752 536.73341,71.9453555 C536.73341,32.676959 567.857957,0.843633899 606.25203,0.843633899 C644.646104,0.843633899 675.770651,32.676959 675.770651,71.9453555 L675.770651,71.9453555 Z" id="path2985-5"></path>
                                    <path d="M496.760197,224.81407 C497.449247,181.310575 550.062565,141.832696 604.520069,142.278669 C659.985664,142.732918 717.973924,188.494085 717.881166,223.03652 C717.707865,287.544658 717.294825,481.164355 717.294825,481.164355 L498.30946,487.505954 C498.30946,487.505954 496.071146,268.317565 496.760197,224.81407 L496.760197,224.81407 Z" id="path3757-1"></path>
                                    <path d="M892.795759,74.1874595 C892.795759,113.455856 861.671213,145.289181 823.277139,145.289181 C784.883065,145.289181 753.758519,113.455856 753.758519,74.1874595 C753.758519,34.9190629 784.883065,3.08573786 823.277139,3.08573786 C861.671213,3.08573786 892.795759,34.9190629 892.795759,74.1874595 L892.795759,74.1874595 Z" id="path2985-6"></path>
                                    <path d="M713.785305,227.056174 C712.924286,188.308847 767.087674,144.0748 821.545177,144.520773 C877.010773,144.975022 930.712695,190.737584 931.031024,225.278624 C931.632835,290.579557 931.219826,483.406427 931.219826,483.406427 L715.334661,486.577227 C715.334661,486.577227 714.646448,265.803469 713.785398,227.056174 L713.785305,227.056174 Z" id="path3757-14"></path>
                                    <path d="M1107.62872,74.1874595 C1107.62872,113.455856 1076.50417,145.289181 1038.1101,145.289181 C999.716022,145.289181 968.591475,113.455856 968.591475,74.1874595 C968.591475,34.9190629 999.716022,3.08573786 1038.1101,3.08573786 C1076.50417,3.08573786 1107.62872,34.9190629 1107.62872,74.1874595 L1107.62872,74.1874595 Z" id="path2985-2"></path>
                                    <path d="M928.618262,227.056174 C927.757243,188.308847 981.92063,144.0748 1036.37813,144.520773 C1091.84373,144.975022 1145.54175,190.737616 1145.86398,225.278624 C1146.46579,289.786825 1146.05278,486.577544 1146.05278,486.577544 L927.067448,486.577544 C927.067448,486.577544 928.704354,265.803469 928.618386,227.056174 C928.53251,188.308878 928.618262,227.056174 928.618262,227.056174 L928.618262,227.056174 Z" id="path3757-3"></path>
                                    <path d="M1541.53657,73.7728855 C1541.53657,113.041282 1510.41202,144.874607 1472.01795,144.874607 C1433.62388,144.874607 1402.49933,113.041282 1402.49933,73.7728855 C1402.49933,34.5044889 1433.62388,2.67116382 1472.01795,2.67116382 C1510.41202,2.67116382 1541.53657,34.5044889 1541.53657,73.7728855 L1541.53657,73.7728855 Z" id="path2985-2-copy"></path>
                                    <path d="M1470.04775,144.246191 C1509.50529,144.569105 1575.61761,178.927826 1575.62438,193.596048 C1575.63116,208.26427 1575.63116,473.989764 1575.63116,473.989764 L1308.27881,473.989764 C1308.27881,473.989764 1341.80737,265.528888 1348.28064,226.781592 C1353.93572,188.034265 1415.62817,143.800218 1470.04775,144.246191 Z" id="path3757-3-copy"></path>
                                    <path d="M240.832764,71.9921096 C240.832764,111.260506 209.708218,143.093831 171.314144,143.093831 C132.920071,143.093831 101.795524,111.260506 101.795524,71.9921096 C101.795524,32.723713 132.920071,0.89038794 171.314144,0.89038794 C209.708218,0.89038794 240.832764,32.723713 240.832764,71.9921096 L240.832764,71.9921096 Z" id="path2985-2-copy-2"></path>
                                    <path d="M169.343942,142.465415 C224.849875,142.919664 286.548687,188.682258 292.92177,223.223266 C304.919317,287.731468 338.807711,484.522186 338.807711,484.522186 L0.098402888,484.522186 C0.098402888,484.522186 40.7360698,263.748112 47.3265826,225.000816 C53.0983183,186.253489 114.925189,142.019442 169.343942,142.465415 Z" id="path3757-3-copy-2"></path>
                                    <path d="M1322.46164,71.9453555 C1322.46164,111.213752 1291.33709,143.047077 1252.94302,143.047077 C1214.54895,143.047077 1183.4244,111.213752 1183.4244,71.9453555 C1183.4244,32.676959 1214.54895,0.843633899 1252.94302,0.843633899 C1291.33709,0.843633899 1322.46164,32.676959 1322.46164,71.9453555 L1322.46164,71.9453555 Z" id="path2985-22"></path>
                                    <path d="M1143.45122,224.81407 C1143.36534,184.481216 1196.75356,141.832696 1251.21106,142.278669 C1306.67665,142.732918 1362.44737,188.540379 1360.69691,223.03652 C1357.42347,287.544816 1305.082,484.335154 1305.082,484.335154 L1143.45035,490.676753 C1143.45035,490.676753 1143.53716,265.146924 1143.45122,224.81407 L1143.45122,224.81407 Z" id="path3757-16"></path>
                                </g>
                            </g>
                        </g>
                    </g>
                </g>
            </g>
        </g>
    </g>
</svg>